<svg width="200" height="200" viewBox="0 0 200 200" fill="none" xmlns="http://www.w3.org/2000/svg">
<path d="M69.9994 141.667L99.9994 111.667L129.999 141.667L141.666 130L111.666 100L141.666 70.0001L129.999 58.3334L99.9994 88.3334L69.9994 58.3334L58.3327 70.0001L88.3327 100L58.3327 130L69.9994 141.667ZM99.9994 183.333C88.4716 183.333 77.6383 181.145 67.4994 176.767C57.3605 172.389 48.541 166.453 41.041 158.958C33.541 151.464 27.6049 142.645 23.2327 132.5C18.8605 122.356 16.6716 111.522 16.666 100C16.6605 88.4779 18.8494 77.6445 23.2327 67.5001C27.616 57.3556 33.5521 48.5362 41.041 41.0417C48.5299 33.5473 57.3494 27.6112 67.4994 23.2334C77.6494 18.8556 88.4827 16.6667 99.9994 16.6667C111.516 16.6667 122.349 18.8556 132.499 23.2334C142.649 27.6112 151.469 33.5473 158.958 41.0417C166.447 48.5362 172.385 57.3556 176.774 67.5001C181.163 77.6445 183.349 88.4779 183.333 100C183.316 111.522 181.127 122.356 176.766 132.5C172.405 142.645 166.469 151.464 158.958 158.958C151.447 166.453 142.627 172.392 132.499 176.775C122.372 181.158 111.538 183.345 99.9994 183.333ZM99.9994 166.667C118.61 166.667 134.374 160.208 147.291 147.292C160.208 134.375 166.666 118.611 166.666 100C166.666 81.389 160.208 65.6251 147.291 52.7084C134.374 39.7917 118.61 33.3334 99.9994 33.3334C81.3882 33.3334 65.6244 39.7917 52.7077 52.7084C39.791 65.6251 33.3327 81.389 33.3327 100C33.3327 118.611 39.791 134.375 52.7077 147.292C65.6244 160.208 81.3882 166.667 99.9994 166.667Z" fill="white"/>
</svg>
