<svg width="182" height="181" viewBox="0 0 182 181" fill="none" xmlns="http://www.w3.org/2000/svg">
<path d="M155.766 19.7971H25.6719C22.5433 19.7971 20.0156 22.3248 20.0156 25.4534V155.547C20.0156 158.676 22.5433 161.203 25.6719 161.203H155.766C158.894 161.203 161.422 158.676 161.422 155.547V25.4534C161.422 22.3248 158.894 19.7971 155.766 19.7971ZM150.109 149.891H117.568V106.444H135.951L138.708 85.1091H117.568V71.4811C117.568 65.2946 119.283 61.0877 128.138 61.0877H139.433V41.9979C137.471 41.7328 130.772 41.1495 122.959 41.1495C106.662 41.1495 95.5089 51.1009 95.5089 69.36V85.0915H77.0907V106.426H95.5266V149.891H31.3281V31.1096H150.109V149.891Z" fill="black"/>
</svg>
