<svg width="182" height="181" viewBox="0 0 182 181" fill="none" xmlns="http://www.w3.org/2000/svg">
<path d="M59.6098 15.0836H122.96C147.093 15.0836 166.701 34.692 166.701 58.8253V122.175C166.701 133.776 162.093 144.902 153.89 153.105C145.687 161.308 134.561 165.917 122.96 165.917H59.6098C35.4765 165.917 15.8682 146.309 15.8682 122.175V58.8253C15.8682 47.2243 20.4766 36.0984 28.6798 27.8953C36.883 19.6921 48.0088 15.0836 59.6098 15.0836ZM58.1015 30.167C50.9009 30.167 43.9952 33.0274 38.9035 38.119C33.8119 43.2106 30.9515 50.1163 30.9515 57.3169V123.684C30.9515 138.692 43.0936 150.834 58.1015 150.834H124.468C131.669 150.834 138.575 147.973 143.666 142.882C148.758 137.79 151.618 130.884 151.618 123.684V57.3169C151.618 42.309 139.476 30.167 124.468 30.167H58.1015ZM130.879 41.4795C133.379 41.4795 135.777 42.4727 137.545 44.2406C139.312 46.0085 140.306 48.4063 140.306 50.9065C140.306 53.4068 139.312 55.8046 137.545 57.5725C135.777 59.3404 133.379 60.3336 130.879 60.3336C128.378 60.3336 125.981 59.3404 124.213 57.5725C122.445 55.8046 121.451 53.4068 121.451 50.9065C121.451 48.4063 122.445 46.0085 124.213 44.2406C125.981 42.4727 128.378 41.4795 130.879 41.4795ZM91.2848 52.792C101.286 52.792 110.877 56.7648 117.949 63.8365C125.02 70.9081 128.993 80.4994 128.993 90.5003C128.993 100.501 125.02 110.092 117.949 117.164C110.877 124.236 101.286 128.209 91.2848 128.209C81.284 128.209 71.6927 124.236 64.621 117.164C57.5493 110.092 53.5765 100.501 53.5765 90.5003C53.5765 80.4994 57.5493 70.9081 64.621 63.8365C71.6927 56.7648 81.284 52.792 91.2848 52.792ZM91.2848 67.8753C85.2843 67.8753 79.5295 70.259 75.2865 74.502C71.0435 78.745 68.6598 84.4998 68.6598 90.5003C68.6598 96.5008 71.0435 102.256 75.2865 106.499C79.5295 110.742 85.2843 113.125 91.2848 113.125C97.2854 113.125 103.04 110.742 107.283 106.499C111.526 102.256 113.91 96.5008 113.91 90.5003C113.91 84.4998 111.526 78.745 107.283 74.502C103.04 70.259 97.2854 67.8753 91.2848 67.8753Z" fill="black"/>
</svg>
