<svg width="402" height="402" viewBox="0 0 402 402" fill="none" xmlns="http://www.w3.org/2000/svg">
<path d="M334.717 259.405C314.634 259.405 292.877 256.058 274.468 249.364H269.447C264.426 249.364 261.079 251.037 257.732 254.385L220.914 291.203C174.053 266.1 133.888 227.607 110.458 180.747L147.276 143.929C152.297 138.908 153.971 132.214 150.623 127.193C145.603 108.784 142.256 87.0271 142.256 66.9442C142.256 58.5764 133.888 50.2085 125.52 50.2085H66.9447C58.5769 50.2085 50.209 58.5764 50.209 66.9442C50.209 224.26 177.401 351.452 334.717 351.452C343.084 351.452 351.452 343.084 351.452 334.716V276.141C351.452 267.773 343.084 259.405 334.717 259.405ZM83.6805 83.68H108.784C110.458 98.7421 113.805 113.804 117.152 127.193L97.0691 147.276C90.3748 127.193 85.354 105.436 83.6805 83.68ZM317.981 317.98C296.224 316.307 274.468 311.286 254.385 304.592L274.468 284.509C287.856 287.856 302.919 291.203 317.981 291.203V317.98Z" fill="black"/>
</svg>
