<svg width="181" height="181" viewBox="0 0 181 181" fill="none" xmlns="http://www.w3.org/2000/svg">
<path fill-rule="evenodd" clip-rule="evenodd" d="M93.6792 19.915C101.398 19.7971 109.057 19.856 116.716 19.7971C117.187 28.8118 120.428 38.003 127.026 44.3661C133.625 50.9061 142.934 53.911 152.007 54.9125V78.6568C143.523 78.3621 134.98 76.5945 127.262 72.9417C123.903 71.4097 120.781 69.4654 117.717 67.4622C117.658 84.6664 117.776 101.871 117.599 119.016C117.128 127.264 114.418 135.454 109.646 142.23C101.928 153.542 88.5536 160.907 74.8259 161.143C66.4009 161.614 57.9757 159.316 50.7879 155.074C38.8868 148.063 30.5205 135.219 29.2834 121.432C29.1655 118.486 29.1066 115.54 29.2243 112.653C30.2849 101.458 35.823 90.735 44.425 83.429C54.205 74.9448 67.8736 70.8794 80.6585 73.2952C80.7764 82.0152 80.4231 90.735 80.4231 99.455C74.5901 97.5695 67.7559 98.0998 62.6301 101.635C58.9184 104.051 56.0904 107.762 54.6175 111.946C53.3802 114.951 53.7337 118.25 53.7926 121.432C55.2066 131.094 64.5154 139.225 74.4135 138.341C81.0122 138.282 87.3163 134.452 90.7336 128.855C91.8528 126.911 93.0901 124.908 93.1489 122.61C93.7383 112.063 93.5025 101.576 93.5615 91.0296C93.6204 67.2854 93.5025 43.6002 93.6792 19.915Z" fill="black"/>
</svg>
