<svg width="512" height="185" viewBox="0 0 512 185" fill="none" xmlns="http://www.w3.org/2000/svg">
<path d="M204.764 35.9478H214.119C217.163 35.9478 219.446 36.7645 220.969 38.398C222.491 40.0315 223.252 42.426 223.252 45.5816V65.2949C223.252 68.4505 222.491 70.845 220.969 72.4785C219.446 74.112 217.163 74.9287 214.119 74.9287H204.764V35.9478ZM214.008 69.36C215.01 69.36 215.771 69.063 216.291 68.469C216.848 67.875 217.126 66.9098 217.126 65.5733V45.3032C217.126 43.9667 216.848 43.0015 216.291 42.4075C215.771 41.8135 215.01 41.5165 214.008 41.5165H210.889V69.36H214.008ZM232.011 35.9478H240.309L246.657 74.9287H240.531L239.418 67.1882V67.2996H232.457L231.343 74.9287H225.663L232.011 35.9478ZM238.694 62.0093L235.965 42.7416H235.854L233.181 62.0093H238.694ZM246.437 35.9478H252.618L256.627 66.1858H256.739L260.748 35.9478H266.373L260.47 74.9287H252.34L246.437 35.9478ZM269.315 35.9478H275.44V74.9287H269.315V35.9478ZM280.028 35.9478H289.384C292.428 35.9478 294.711 36.7645 296.233 38.398C297.755 40.0315 298.516 42.426 298.516 45.5816V65.2949C298.516 68.4505 297.755 70.845 296.233 72.4785C294.711 74.112 292.428 74.9287 289.384 74.9287H280.028V35.9478ZM289.272 69.36C290.275 69.36 291.036 69.063 291.555 68.469C292.112 67.875 292.391 66.9098 292.391 65.5733V45.3032C292.391 43.9667 292.112 43.0015 291.555 42.4075C291.036 41.8135 290.275 41.5165 289.272 41.5165H286.154V69.36H289.272ZM304.656 41.8506H302.651V35.9478H308.554V41.238L305.157 48.5331H302.317L304.656 41.8506ZM321.11 75.4856C318.14 75.4856 315.894 74.6503 314.372 72.9797C312.85 71.2719 312.089 68.8403 312.089 65.6847V63.4572H317.88V66.1302C317.88 68.6546 318.938 69.9169 321.054 69.9169C322.094 69.9169 322.873 69.6199 323.393 69.0259C323.95 68.3948 324.228 67.3924 324.228 66.0188C324.228 64.3853 323.857 62.956 323.115 61.7309C322.372 60.4686 320.999 58.9651 318.994 57.2202C316.469 54.9927 314.706 52.988 313.704 51.206C312.701 49.3869 312.2 47.3451 312.2 45.0805C312.2 41.9991 312.98 39.6231 314.539 37.9525C316.098 36.2448 318.363 35.3909 321.333 35.3909C324.266 35.3909 326.474 36.2448 327.959 37.9525C329.482 39.6231 330.243 42.0362 330.243 45.1918V46.8068H324.451V44.802C324.451 43.4655 324.191 42.5003 323.672 41.9063C323.152 41.2752 322.391 40.9596 321.388 40.9596C319.347 40.9596 318.326 42.2033 318.326 44.6906C318.326 46.1014 318.697 47.4193 319.439 48.6444C320.219 49.8695 321.611 51.3545 323.616 53.0994C326.177 55.3269 327.941 57.3502 328.906 59.1693C329.871 60.9884 330.354 63.1231 330.354 65.5733C330.354 68.766 329.556 71.2162 327.959 72.924C326.4 74.6317 324.117 75.4856 321.11 75.4856ZM342.785 35.9478H351.806C354.85 35.9478 357.134 36.7645 358.656 38.398C360.178 40.0315 360.939 42.426 360.939 45.5816V49.424C360.939 52.5796 360.178 54.9742 358.656 56.6077C357.134 58.2412 354.85 59.0579 351.806 59.0579H348.91V74.9287H342.785V35.9478ZM351.806 53.4892C352.809 53.4892 353.551 53.2108 354.034 52.6539C354.553 52.097 354.813 51.1503 354.813 49.8139V45.1918C354.813 43.8553 354.553 42.9087 354.034 42.3518C353.551 41.7949 352.809 41.5165 351.806 41.5165H348.91V53.4892H351.806ZM364.266 35.9478H373.343C376.498 35.9478 378.8 36.6903 380.248 38.1753C381.696 39.6231 382.42 41.8692 382.42 44.9134V47.3079C382.42 51.3545 381.083 53.9161 378.41 54.9927V55.1041C379.895 55.5496 380.935 56.4592 381.529 57.8328C382.16 59.2064 382.475 61.0441 382.475 63.3458V70.1953C382.475 71.3091 382.512 72.2186 382.587 72.924C382.661 73.5922 382.847 74.2605 383.144 74.9287H376.907C376.684 74.2976 376.535 73.7036 376.461 73.1467C376.387 72.5899 376.35 71.5875 376.35 70.1396V63.0117C376.35 61.2297 376.053 59.986 375.459 59.2807C374.902 58.5753 373.918 58.2226 372.507 58.2226H370.391V74.9287H364.266V35.9478ZM372.619 52.6539C373.844 52.6539 374.753 52.3383 375.347 51.7072C375.979 51.0761 376.294 50.018 376.294 48.5331V45.526C376.294 44.1152 376.034 43.0943 375.514 42.4632C375.032 41.832 374.252 41.5165 373.176 41.5165H370.391V52.6539H372.619ZM386.725 35.9478H403.432V41.5165H392.851V51.8186H401.26V57.3873H392.851V69.36H403.432V74.9287H386.725V35.9478ZM415.027 75.4856C412.057 75.4856 409.811 74.6503 408.289 72.9797C406.767 71.2719 406.006 68.8403 406.006 65.6847V63.4572H411.798V66.1302C411.798 68.6546 412.856 69.9169 414.972 69.9169C416.011 69.9169 416.791 69.6199 417.311 69.0259C417.868 68.3948 418.146 67.3924 418.146 66.0188C418.146 64.3853 417.775 62.956 417.032 61.7309C416.29 60.4686 414.916 58.9651 412.911 57.2202C410.387 54.9927 408.623 52.988 407.621 51.206C406.619 49.3869 406.118 47.3451 406.118 45.0805C406.118 41.9991 406.897 39.6231 408.456 37.9525C410.016 36.2448 412.28 35.3909 415.25 35.3909C418.183 35.3909 420.392 36.2448 421.877 37.9525C423.399 39.6231 424.16 42.0362 424.16 45.1918V46.8068H418.369V44.802C418.369 43.4655 418.109 42.5003 417.589 41.9063C417.069 41.2752 416.308 40.9596 415.306 40.9596C413.264 40.9596 412.243 42.2033 412.243 44.6906C412.243 46.1014 412.614 47.4193 413.357 48.6444C414.136 49.8695 415.529 51.3545 417.533 53.0994C420.095 55.3269 421.858 57.3502 422.824 59.1693C423.789 60.9884 424.272 63.1231 424.272 65.5733C424.272 68.766 423.473 71.2162 421.877 72.924C420.318 74.6317 418.035 75.4856 415.027 75.4856ZM435.747 75.4856C432.777 75.4856 430.531 74.6503 429.009 72.9797C427.487 71.2719 426.726 68.8403 426.726 65.6847V63.4572H432.517V66.1302C432.517 68.6546 433.575 69.9169 435.691 69.9169C436.731 69.9169 437.51 69.6199 438.03 69.0259C438.587 68.3948 438.865 67.3924 438.865 66.0188C438.865 64.3853 438.494 62.956 437.752 61.7309C437.009 60.4686 435.636 58.9651 433.631 57.2202C431.106 54.9927 429.343 52.988 428.341 51.206C427.338 49.3869 426.837 47.3451 426.837 45.0805C426.837 41.9991 427.617 39.6231 429.176 37.9525C430.735 36.2448 433 35.3909 435.97 35.3909C438.903 35.3909 441.111 36.2448 442.596 37.9525C444.119 39.6231 444.88 42.0362 444.88 45.1918V46.8068H439.088V44.802C439.088 43.4655 438.828 42.5003 438.309 41.9063C437.789 41.2752 437.028 40.9596 436.025 40.9596C433.984 40.9596 432.963 42.2033 432.963 44.6906C432.963 46.1014 433.334 47.4193 434.076 48.6444C434.856 49.8695 436.248 51.3545 438.253 53.0994C440.814 55.3269 442.578 57.3502 443.543 59.1693C444.508 60.9884 444.991 63.1231 444.991 65.5733C444.991 68.766 444.193 71.2162 442.596 72.924C441.037 74.6317 438.754 75.4856 435.747 75.4856ZM457.413 75.4856C454.443 75.4856 452.179 74.6503 450.619 72.9797C449.06 71.2719 448.28 68.8403 448.28 65.6847V35.9478H454.406V66.1302C454.406 67.4666 454.666 68.4319 455.186 69.0259C455.743 69.6199 456.522 69.9169 457.525 69.9169C458.527 69.9169 459.288 69.6199 459.808 69.0259C460.365 68.4319 460.643 67.4666 460.643 66.1302V35.9478H466.546V65.6847C466.546 68.8403 465.766 71.2719 464.207 72.9797C462.648 74.6503 460.383 75.4856 457.413 75.4856ZM470.909 35.9478H479.986C483.141 35.9478 485.443 36.6903 486.891 38.1753C488.339 39.6231 489.063 41.8692 489.063 44.9134V47.3079C489.063 51.3545 487.726 53.9161 485.053 54.9927V55.1041C486.538 55.5496 487.578 56.4592 488.172 57.8328C488.803 59.2064 489.118 61.0441 489.118 63.3458V70.1953C489.118 71.3091 489.155 72.2186 489.23 72.924C489.304 73.5922 489.489 74.2605 489.786 74.9287H483.549C483.327 74.2976 483.178 73.7036 483.104 73.1467C483.03 72.5899 482.993 71.5875 482.993 70.1396V63.0117C482.993 61.2297 482.696 59.986 482.102 59.2807C481.545 58.5753 480.561 58.2226 479.15 58.2226H477.034V74.9287H470.909V35.9478ZM479.262 52.6539C480.487 52.6539 481.396 52.3383 481.99 51.7072C482.621 51.0761 482.937 50.018 482.937 48.5331V45.526C482.937 44.1152 482.677 43.0943 482.157 42.4632C481.675 41.832 480.895 41.5165 479.818 41.5165H477.034V52.6539H479.262ZM493.368 35.9478H510.074V41.5165H499.494V51.8186H507.903V57.3873H499.494V69.36H510.074V74.9287H493.368V35.9478ZM203.316 102.948H209.219L211.947 132.907H212.059L214.954 102.948H221.637L224.533 132.907H224.644L227.373 102.948H232.663L228.709 141.929H221.08L218.296 115.644H218.184L215.4 141.929H207.27L203.316 102.948ZM239.733 102.948H248.031L254.379 141.929H248.253L247.14 134.188V134.3H240.179L239.065 141.929H233.385L239.733 102.948ZM246.416 129.009L243.687 109.742H243.576L240.903 129.009H246.416ZM265.151 142.486C262.181 142.486 259.935 141.65 258.413 139.98C256.891 138.272 256.13 135.84 256.13 132.685V130.457H261.921V133.13C261.921 135.655 262.979 136.917 265.095 136.917C266.135 136.917 266.914 136.62 267.434 136.026C267.991 135.395 268.269 134.392 268.269 133.019C268.269 131.385 267.898 129.956 267.156 128.731C266.413 127.469 265.04 125.965 263.035 124.22C260.51 121.993 258.747 119.988 257.745 118.206C256.742 116.387 256.241 114.345 256.241 112.08C256.241 108.999 257.021 106.623 258.58 104.953C260.139 103.245 262.404 102.391 265.374 102.391C268.307 102.391 270.516 103.245 272.001 104.953C273.523 106.623 274.284 109.036 274.284 112.192V113.807H268.492V111.802C268.492 110.466 268.232 109.5 267.713 108.906C267.193 108.275 266.432 107.96 265.429 107.96C263.388 107.96 262.367 109.203 262.367 111.691C262.367 113.101 262.738 114.419 263.48 115.644C264.26 116.87 265.652 118.355 267.657 120.099C270.219 122.327 271.982 124.35 272.947 126.169C273.912 127.988 274.395 130.123 274.395 132.573C274.395 135.766 273.597 138.216 272.001 139.924C270.441 141.632 268.158 142.486 265.151 142.486ZM277.907 102.948H284.033V118.819H290.604V102.948H296.729V141.929H290.604V124.387H284.033V141.929H277.907V102.948ZM301.291 102.948H307.417V141.929H301.291V102.948ZM312.005 102.948H319.69L325.648 126.281H325.759V102.948H331.217V141.929H324.924L317.573 113.473H317.462V141.929H312.005V102.948ZM344.457 142.486C341.487 142.486 339.222 141.65 337.663 139.98C336.104 138.272 335.324 135.84 335.324 132.685V112.192C335.324 109.036 336.104 106.623 337.663 104.953C339.222 103.245 341.487 102.391 344.457 102.391C347.427 102.391 349.691 103.245 351.251 104.953C352.81 106.623 353.589 109.036 353.589 112.192V115.533H347.798V111.802C347.798 109.24 346.74 107.96 344.624 107.96C342.508 107.96 341.45 109.24 341.45 111.802V133.13C341.45 135.655 342.508 136.917 344.624 136.917C346.74 136.917 347.798 135.655 347.798 133.13V125.501H344.735V119.932H353.589V132.685C353.589 135.84 352.81 138.272 351.251 139.98C349.691 141.65 347.427 142.486 344.457 142.486Z" fill="black"/>
<path d="M145.632 39.083V146.281H38.4341V39.083H145.632ZM145.632 23.769H38.4341C30.0114 23.769 23.1201 30.6603 23.1201 39.083V146.281C23.1201 154.703 30.0114 161.594 38.4341 161.594H145.632C154.054 161.594 160.946 154.703 160.946 146.281V39.083C160.946 30.6603 154.054 23.769 145.632 23.769ZM108.419 91.6098L85.4478 121.242L69.0619 101.411L46.091 130.967H137.975L108.419 91.6098Z" fill="black"/>
</svg>
